{
	"asset":{
		"generator":"Khronos glTF Blender I/O v3.5.30",
		"version":"2.0"
	},
	"scene":0,
	"scenes":[
		{
			"name":"Scene",
			"nodes":[
				0
			]
		}
	],
	"nodes":[
		{
			"mesh":0,
			"name":"Roof",
			"rotation":[
				1,
				0,
				0,
				0
			],
			"scale":[
				-3.3443877696990967,
				-1.6795654296875,
				-1.59962797164917
			],
			"translation":[
				-0.006362438201904297,
				1.690152645111084,
				0
			]
		}
	],
	"materials":[
		{
			"doubleSided":true,
			"name":"Material.001",
			"pbrMetallicRoughness":{
				"baseColorFactor":[
					0.8275574445724487,
					0.2278212606906891,
					0.0667051300406456,
					1
				],
				"metallicFactor":0,
				"roughnessFactor":0.5
			}
		},
		{
			"doubleSided":true,
			"name":"Material.002",
			"pbrMetallicRoughness":{
				"baseColorFactor":[
					0.9258266091346741,
					0.8655923008918762,
					0.8396182656288147,
					1
				],
				"metallicFactor":0,
				"roughnessFactor":0.5
			}
		},
		{
			"doubleSided":true,
			"name":"Material.008",
			"pbrMetallicRoughness":{
				"baseColorFactor":[
					0.6981924772262573,
					0.14288698136806488,
					0.016262561082839966,
					1
				],
				"metallicFactor":0,
				"roughnessFactor":0.5
			}
		},
		{
			"doubleSided":true,
			"name":"Material.006",
			"pbrMetallicRoughness":{
				"baseColorFactor":[
					0.03307362273335457,
					0.010646483860909939,
					0.010646483860909939,
					1
				],
				"metallicFactor":0,
				"roughnessFactor":0.5
			}
		},
		{
			"doubleSided":true,
			"name":"Material.003",
			"pbrMetallicRoughness":{
				"baseColorFactor":[
					0.03967975825071335,
					0.005992682185024023,
					0.00566356536000967,
					1
				],
				"metallicFactor":0,
				"roughnessFactor":0.5
			}
		},
		{
			"doubleSided":true,
			"name":"Material.004",
			"pbrMetallicRoughness":{
				"metallicFactor":0,
				"roughnessFactor":0.5
			}
		},
		{
			"doubleSided":true,
			"name":"Material.007",
			"pbrMetallicRoughness":{
				"baseColorFactor":[
					0.05220131203532219,
					0.008628412149846554,
					0.010580300353467464,
					1
				],
				"metallicFactor":0,
				"roughnessFactor":0.5
			}
		},
		{
			"doubleSided":true,
			"name":"Material.009",
			"pbrMetallicRoughness":{
				"baseColorFactor":[
					0.44905683398246765,
					0.9287379384040833,
					0.9848872423171997,
					1
				],
				"metallicFactor":0,
				"roughnessFactor":0.5
			}
		},
		{
			"doubleSided":true,
			"name":"Material.010",
			"pbrMetallicRoughness":{
				"baseColorFactor":[
					0.6382716298103333,
					0.22570595145225525,
					0.03864869475364685,
					1
				],
				"metallicFactor":0,
				"roughnessFactor":0.5
			}
		},
		{
			"doubleSided":true,
			"name":"Material.011",
			"pbrMetallicRoughness":{
				"baseColorFactor":[
					0.44905683398246765,
					0.9287379384040833,
					0.9848872423171997,
					1
				],
				"metallicFactor":0,
				"roughnessFactor":0.5
			}
		},
		{
			"doubleSided":true,
			"name":"Material.012",
			"pbrMetallicRoughness":{
				"baseColorFactor":[
					0.03967975825071335,
					0.005992682185024023,
					0.00566356536000967,
					1
				],
				"metallicFactor":0,
				"roughnessFactor":0.5
			}
		},
		{
			"doubleSided":true,
			"name":"Material.034",
			"pbrMetallicRoughness":{
				"baseColorFactor":[
					0.6173122525215149,
					0.6266624331474304,
					0.6080440878868103,
					1
				],
				"metallicFactor":0,
				"roughnessFactor":0.5
			}
		},
		{
			"doubleSided":true,
			"name":"Material.035",
			"pbrMetallicRoughness":{
				"baseColorFactor":[
					0.47698986530303955,
					0.47698986530303955,
					0.47698986530303955,
					1
				],
				"metallicFactor":0,
				"roughnessFactor":0.5
			}
		},
		{
			"doubleSided":true,
			"name":"Material.036",
			"pbrMetallicRoughness":{
				"baseColorFactor":[
					0.47698986530303955,
					0.47698986530303955,
					0.47698986530303955,
					1
				],
				"metallicFactor":0,
				"roughnessFactor":0.5
			}
		}
	],
	"meshes":[
		{
			"name":"Cube.004",
			"primitives":[
				{
					"attributes":{
						"POSITION":0,
						"TEXCOORD_0":1,
						"NORMAL":2
					},
					"indices":3,
					"material":0
				},
				{
					"attributes":{
						"POSITION":4,
						"TEXCOORD_0":5,
						"NORMAL":6
					},
					"indices":7,
					"material":1
				},
				{
					"attributes":{
						"POSITION":8,
						"TEXCOORD_0":9,
						"NORMAL":10
					},
					"indices":11,
					"material":2
				},
				{
					"attributes":{
						"POSITION":12,
						"TEXCOORD_0":13,
						"NORMAL":14
					},
					"indices":15,
					"material":3
				},
				{
					"attributes":{
						"POSITION":16,
						"TEXCOORD_0":17,
						"NORMAL":18
					},
					"indices":19,
					"material":4
				},
				{
					"attributes":{
						"POSITION":20,
						"TEXCOORD_0":21,
						"NORMAL":22
					},
					"indices":23,
					"material":5
				},
				{
					"attributes":{
						"POSITION":24,
						"TEXCOORD_0":25,
						"NORMAL":26
					},
					"indices":27,
					"material":6
				},
				{
					"attributes":{
						"POSITION":28,
						"TEXCOORD_0":29,
						"NORMAL":30
					},
					"indices":23,
					"material":7
				},
				{
					"attributes":{
						"POSITION":31,
						"TEXCOORD_0":32,
						"NORMAL":33
					},
					"indices":23,
					"material":8
				},
				{
					"attributes":{
						"POSITION":34,
						"TEXCOORD_0":35,
						"NORMAL":36
					},
					"indices":23,
					"material":9
				},
				{
					"attributes":{
						"POSITION":37,
						"TEXCOORD_0":38,
						"NORMAL":39
					},
					"indices":19,
					"material":10
				},
				{
					"attributes":{
						"POSITION":40,
						"TEXCOORD_0":41,
						"NORMAL":42
					},
					"indices":43,
					"material":11
				},
				{
					"attributes":{
						"POSITION":44,
						"TEXCOORD_0":45,
						"NORMAL":46
					},
					"indices":47,
					"material":12
				},
				{
					"attributes":{
						"POSITION":48,
						"TEXCOORD_0":49,
						"NORMAL":50
					},
					"indices":47,
					"material":13
				}
			]
		}
	],
	"accessors":[
		{
			"bufferView":0,
			"componentType":5126,
			"count":96,
			"max":[
				1,
				1.8527374267578125,
				1.166486382484436
			],
			"min":[
				-1,
				0.9098265767097473,
				-1.166486382484436
			],
			"type":"VEC3"
		},
		{
			"bufferView":1,
			"componentType":5126,
			"count":96,
			"type":"VEC2"
		},
		{
			"bufferView":2,
			"componentType":5126,
			"count":96,
			"type":"VEC3"
		},
		{
			"bufferView":3,
			"componentType":5123,
			"count":180,
			"type":"SCALAR"
		},
		{
			"bufferView":4,
			"componentType":5126,
			"count":179,
			"max":[
				0.949493408203125,
				1.7949895858764648,
				1.1244449615478516
			],
			"min":[
				-0.95951247215271,
				-1,
				-1.3127241134643555
			],
			"type":"VEC3"
		},
		{
			"bufferView":5,
			"componentType":5126,
			"count":179,
			"type":"VEC2"
		},
		{
			"bufferView":6,
			"componentType":5126,
			"count":179,
			"type":"VEC3"
		},
		{
			"bufferView":7,
			"componentType":5123,
			"count":390,
			"type":"SCALAR"
		},
		{
			"bufferView":8,
			"componentType":5126,
			"count":78,
			"max":[
				0.6397082805633545,
				2.2485692501068115,
				-0.2407744824886322
			],
			"min":[
				0.42465969920158386,
				1.2641055583953857,
				-0.6903825998306274
			],
			"type":"VEC3"
		},
		{
			"bufferView":9,
			"componentType":5126,
			"count":78,
			"type":"VEC2"
		},
		{
			"bufferView":10,
			"componentType":5126,
			"count":78,
			"type":"VEC3"
		},
		{
			"bufferView":11,
			"componentType":5123,
			"count":156,
			"type":"SCALAR"
		},
		{
			"bufferView":12,
			"componentType":5126,
			"count":54,
			"max":[
				0.22395442426204681,
				0.5567379593849182,
				0.1577252447605133
			],
			"min":[
				-0.23016001284122467,
				-0.8168534636497498,
				-1.0925654172897339
			],
			"type":"VEC3"
		},
		{
			"bufferView":13,
			"componentType":5126,
			"count":54,
			"type":"VEC2"
		},
		{
			"bufferView":14,
			"componentType":5126,
			"count":54,
			"type":"VEC3"
		},
		{
			"bufferView":15,
			"componentType":5123,
			"count":108,
			"type":"SCALAR"
		},
		{
			"bufferView":16,
			"componentType":5126,
			"count":182,
			"max":[
				-0.3676837086677551,
				0.4644296169281006,
				0.013411402702331543
			],
			"min":[
				-0.7666029334068298,
				-0.31263017654418945,
				-1.084912896156311
			],
			"type":"VEC3"
		},
		{
			"bufferView":17,
			"componentType":5126,
			"count":182,
			"type":"VEC2"
		},
		{
			"bufferView":18,
			"componentType":5126,
			"count":182,
			"type":"VEC3"
		},
		{
			"bufferView":19,
			"componentType":5123,
			"count":444,
			"type":"SCALAR"
		},
		{
			"bufferView":20,
			"componentType":5126,
			"count":24,
			"max":[
				0.2578306198120117,
				-0.8793957233428955,
				-0.29372185468673706
			],
			"min":[
				-0.2616354823112488,
				-0.9841293096542358,
				-1.5585737228393555
			],
			"type":"VEC3"
		},
		{
			"bufferView":21,
			"componentType":5126,
			"count":24,
			"type":"VEC2"
		},
		{
			"bufferView":22,
			"componentType":5126,
			"count":24,
			"type":"VEC3"
		},
		{
			"bufferView":23,
			"componentType":5123,
			"count":36,
			"type":"SCALAR"
		},
		{
			"bufferView":24,
			"componentType":5126,
			"count":144,
			"max":[
				-0.0776418074965477,
				-0.10471843928098679,
				-0.970456600189209
			],
			"min":[
				-0.13805338740348816,
				-0.22501128911972046,
				-1.1251083612442017
			],
			"type":"VEC3"
		},
		{
			"bufferView":25,
			"componentType":5126,
			"count":144,
			"type":"VEC2"
		},
		{
			"bufferView":26,
			"componentType":5126,
			"count":144,
			"type":"VEC3"
		},
		{
			"bufferView":27,
			"componentType":5123,
			"count":228,
			"type":"SCALAR"
		},
		{
			"bufferView":28,
			"componentType":5126,
			"count":24,
			"max":[
				-0.3771403431892395,
				0.4288313686847687,
				-0.2925609052181244
			],
			"min":[
				-0.7528315186500549,
				-0.29056409001350403,
				-1.0230333805084229
			],
			"type":"VEC3"
		},
		{
			"bufferView":29,
			"componentType":5126,
			"count":24,
			"type":"VEC2"
		},
		{
			"bufferView":30,
			"componentType":5126,
			"count":24,
			"type":"VEC3"
		},
		{
			"bufferView":31,
			"componentType":5126,
			"count":24,
			"max":[
				0.20912058651447296,
				0.5138213634490967,
				0.23830771446228027
			],
			"min":[
				-0.21292541921138763,
				-0.7900758981704712,
				-1.0119829177856445
			],
			"type":"VEC3"
		},
		{
			"bufferView":32,
			"componentType":5126,
			"count":24,
			"type":"VEC2"
		},
		{
			"bufferView":33,
			"componentType":5126,
			"count":24,
			"type":"VEC3"
		},
		{
			"bufferView":34,
			"componentType":5126,
			"count":24,
			"max":[
				0.7434781789779663,
				0.4288313686847687,
				-0.2925609052181244
			],
			"min":[
				0.3677870035171509,
				-0.29056409001350403,
				-1.0230333805084229
			],
			"type":"VEC3"
		},
		{
			"bufferView":35,
			"componentType":5126,
			"count":24,
			"type":"VEC2"
		},
		{
			"bufferView":36,
			"componentType":5126,
			"count":24,
			"type":"VEC3"
		},
		{
			"bufferView":37,
			"componentType":5126,
			"count":182,
			"max":[
				0.7605721950531006,
				0.4644296169281006,
				0.013411402702331543
			],
			"min":[
				0.3616529703140259,
				-0.31263017654418945,
				-1.084912896156311
			],
			"type":"VEC3"
		},
		{
			"bufferView":38,
			"componentType":5126,
			"count":182,
			"type":"VEC2"
		},
		{
			"bufferView":39,
			"componentType":5126,
			"count":182,
			"type":"VEC3"
		},
		{
			"bufferView":40,
			"componentType":5126,
			"count":9934,
			"max":[
				0.9456812739372253,
				1.672914743423462,
				1.0599563121795654
			],
			"min":[
				-0.9354667663574219,
				-0.9317596554756165,
				-1.0494580268859863
			],
			"type":"VEC3"
		},
		{
			"bufferView":41,
			"componentType":5126,
			"count":9934,
			"type":"VEC2"
		},
		{
			"bufferView":42,
			"componentType":5126,
			"count":9934,
			"type":"VEC3"
		},
		{
			"bufferView":43,
			"componentType":5123,
			"count":16044,
			"type":"SCALAR"
		},
		{
			"bufferView":44,
			"componentType":5126,
			"count":52,
			"max":[
				0.49275919795036316,
				-0.3284631073474884,
				-0.9481889605522156
			],
			"min":[
				0.3543095588684082,
				-0.44846996665000916,
				-1.0419613122940063
			],
			"type":"VEC3"
		},
		{
			"bufferView":45,
			"componentType":5126,
			"count":52,
			"type":"VEC2"
		},
		{
			"bufferView":46,
			"componentType":5126,
			"count":52,
			"type":"VEC3"
		},
		{
			"bufferView":47,
			"componentType":5123,
			"count":84,
			"type":"SCALAR"
		},
		{
			"bufferView":48,
			"componentType":5126,
			"count":52,
			"max":[
				0.6549782752990723,
				-0.32447972893714905,
				-0.955210268497467
			],
			"min":[
				0.49246490001678467,
				-0.44998666644096375,
				-1.0358726978302002
			],
			"type":"VEC3"
		},
		{
			"bufferView":49,
			"componentType":5126,
			"count":52,
			"type":"VEC2"
		},
		{
			"bufferView":50,
			"componentType":5126,
			"count":52,
			"type":"VEC3"
		}
	],
	"bufferViews":[
		{
			"buffer":0,
			"byteLength":1152,
			"byteOffset":0,
			"target":34962
		},
		{
			"buffer":0,
			"byteLength":768,
			"byteOffset":1152,
			"target":34962
		},
		{
			"buffer":0,
			"byteLength":1152,
			"byteOffset":1920,
			"target":34962
		},
		{
			"buffer":0,
			"byteLength":360,
			"byteOffset":3072,
			"target":34963
		},
		{
			"buffer":0,
			"byteLength":2148,
			"byteOffset":3432,
			"target":34962
		},
		{
			"buffer":0,
			"byteLength":1432,
			"byteOffset":5580,
			"target":34962
		},
		{
			"buffer":0,
			"byteLength":2148,
			"byteOffset":7012,
			"target":34962
		},
		{
			"buffer":0,
			"byteLength":780,
			"byteOffset":9160,
			"target":34963
		},
		{
			"buffer":0,
			"byteLength":936,
			"byteOffset":9940,
			"target":34962
		},
		{
			"buffer":0,
			"byteLength":624,
			"byteOffset":10876,
			"target":34962
		},
		{
			"buffer":0,
			"byteLength":936,
			"byteOffset":11500,
			"target":34962
		},
		{
			"buffer":0,
			"byteLength":312,
			"byteOffset":12436,
			"target":34963
		},
		{
			"buffer":0,
			"byteLength":648,
			"byteOffset":12748,
			"target":34962
		},
		{
			"buffer":0,
			"byteLength":432,
			"byteOffset":13396,
			"target":34962
		},
		{
			"buffer":0,
			"byteLength":648,
			"byteOffset":13828,
			"target":34962
		},
		{
			"buffer":0,
			"byteLength":216,
			"byteOffset":14476,
			"target":34963
		},
		{
			"buffer":0,
			"byteLength":2184,
			"byteOffset":14692,
			"target":34962
		},
		{
			"buffer":0,
			"byteLength":1456,
			"byteOffset":16876,
			"target":34962
		},
		{
			"buffer":0,
			"byteLength":2184,
			"byteOffset":18332,
			"target":34962
		},
		{
			"buffer":0,
			"byteLength":888,
			"byteOffset":20516,
			"target":34963
		},
		{
			"buffer":0,
			"byteLength":288,
			"byteOffset":21404,
			"target":34962
		},
		{
			"buffer":0,
			"byteLength":192,
			"byteOffset":21692,
			"target":34962
		},
		{
			"buffer":0,
			"byteLength":288,
			"byteOffset":21884,
			"target":34962
		},
		{
			"buffer":0,
			"byteLength":72,
			"byteOffset":22172,
			"target":34963
		},
		{
			"buffer":0,
			"byteLength":1728,
			"byteOffset":22244,
			"target":34962
		},
		{
			"buffer":0,
			"byteLength":1152,
			"byteOffset":23972,
			"target":34962
		},
		{
			"buffer":0,
			"byteLength":1728,
			"byteOffset":25124,
			"target":34962
		},
		{
			"buffer":0,
			"byteLength":456,
			"byteOffset":26852,
			"target":34963
		},
		{
			"buffer":0,
			"byteLength":288,
			"byteOffset":27308,
			"target":34962
		},
		{
			"buffer":0,
			"byteLength":192,
			"byteOffset":27596,
			"target":34962
		},
		{
			"buffer":0,
			"byteLength":288,
			"byteOffset":27788,
			"target":34962
		},
		{
			"buffer":0,
			"byteLength":288,
			"byteOffset":28076,
			"target":34962
		},
		{
			"buffer":0,
			"byteLength":192,
			"byteOffset":28364,
			"target":34962
		},
		{
			"buffer":0,
			"byteLength":288,
			"byteOffset":28556,
			"target":34962
		},
		{
			"buffer":0,
			"byteLength":288,
			"byteOffset":28844,
			"target":34962
		},
		{
			"buffer":0,
			"byteLength":192,
			"byteOffset":29132,
			"target":34962
		},
		{
			"buffer":0,
			"byteLength":288,
			"byteOffset":29324,
			"target":34962
		},
		{
			"buffer":0,
			"byteLength":2184,
			"byteOffset":29612,
			"target":34962
		},
		{
			"buffer":0,
			"byteLength":1456,
			"byteOffset":31796,
			"target":34962
		},
		{
			"buffer":0,
			"byteLength":2184,
			"byteOffset":33252,
			"target":34962
		},
		{
			"buffer":0,
			"byteLength":119208,
			"byteOffset":35436,
			"target":34962
		},
		{
			"buffer":0,
			"byteLength":79472,
			"byteOffset":154644,
			"target":34962
		},
		{
			"buffer":0,
			"byteLength":119208,
			"byteOffset":234116,
			"target":34962
		},
		{
			"buffer":0,
			"byteLength":32088,
			"byteOffset":353324,
			"target":34963
		},
		{
			"buffer":0,
			"byteLength":624,
			"byteOffset":385412,
			"target":34962
		},
		{
			"buffer":0,
			"byteLength":416,
			"byteOffset":386036,
			"target":34962
		},
		{
			"buffer":0,
			"byteLength":624,
			"byteOffset":386452,
			"target":34962
		},
		{
			"buffer":0,
			"byteLength":168,
			"byteOffset":387076,
			"target":34963
		},
		{
			"buffer":0,
			"byteLength":624,
			"byteOffset":387244,
			"target":34962
		},
		{
			"buffer":0,
			"byteLength":416,
			"byteOffset":387868,
			"target":34962
		},
		{
			"buffer":0,
			"byteLength":624,
			"byteOffset":388284,
			"target":34962
		}
	],
	"buffers":[
		{
			"byteLength":388908,
			"uri":"data:application/octet-stream;base64,"
		}
	]
}
