{
	"asset":{
		"generator":"Khronos glTF Blender I/O v3.5.30",
		"version":"2.0"
	},
	"scene":0,
	"scenes":[
		{
			"name":"Scene",
			"nodes":[
				0
			]
		}
	],
	"nodes":[
		{
			"mesh":0,
			"name":"SecondStep",
			"scale":[
				0.8686480522155762,
				0.08795350044965744,
				1.0116462707519531
			],
			"translation":[
				0,
				0.12519650161266327,
				-1.4814919233322144
			]
		}
	],
	"materials":[
		{
			"doubleSided":true,
			"name":"Material.004",
			"pbrMetallicRoughness":{
				"baseColorFactor":[
					0.11068911105394363,
					0.11068911105394363,
					0.11068911105394363,
					1
				],
				"metallicFactor":0,
				"roughnessFactor":0.5
			}
		},
		{
			"doubleSided":true,
			"name":"Material.002",
			"pbrMetallicRoughness":{
				"baseColorTexture":{
					"index":0
				},
				"metallicFactor":0,
				"roughnessFactor":0.5
			}
		},
		{
			"doubleSided":true,
			"name":"Material.001",
			"pbrMetallicRoughness":{
				"baseColorFactor":[
					0.009018084034323692,
					0.009018084034323692,
					0.009018084034323692,
					1
				],
				"metallicFactor":0,
				"roughnessFactor":0.5
			}
		},
		{
			"doubleSided":true,
			"name":"Material.008",
			"pbrMetallicRoughness":{
				"baseColorFactor":[
					0.08001205325126648,
					0.08001205325126648,
					0.08001205325126648,
					1
				],
				"metallicFactor":0,
				"roughnessFactor":0.5
			}
		},
		{
			"doubleSided":true,
			"name":"Material.006",
			"pbrMetallicRoughness":{
				"baseColorFactor":[
					0.03307362273335457,
					0.010646483860909939,
					0.010646483860909939,
					1
				],
				"metallicFactor":0,
				"roughnessFactor":0.5
			}
		},
		{
			"doubleSided":true,
			"name":"Material.003",
			"pbrMetallicRoughness":{
				"baseColorFactor":[
					0.03967975825071335,
					0.005992682185024023,
					0.00566356536000967,
					1
				],
				"metallicFactor":0,
				"roughnessFactor":0.5
			}
		},
		{
			"doubleSided":true,
			"name":"Material.007",
			"pbrMetallicRoughness":{
				"baseColorFactor":[
					0.05220131203532219,
					0.008628412149846554,
					0.010580300353467464,
					1
				],
				"metallicFactor":0,
				"roughnessFactor":0.5
			}
		},
		{
			"doubleSided":true,
			"name":"Material.009",
			"pbrMetallicRoughness":{
				"baseColorFactor":[
					0.44905683398246765,
					0.9287379384040833,
					0.9848872423171997,
					1
				],
				"metallicFactor":0,
				"roughnessFactor":0.5
			}
		},
		{
			"doubleSided":true,
			"name":"Material.010",
			"pbrMetallicRoughness":{
				"baseColorFactor":[
					0.33431363105773926,
					0.14866630733013153,
					0.08687182515859604,
					1
				],
				"metallicFactor":0,
				"roughnessFactor":0.5
			}
		},
		{
			"doubleSided":true,
			"name":"Material.011",
			"pbrMetallicRoughness":{
				"baseColorFactor":[
					0.44905683398246765,
					0.9287379384040833,
					0.9848872423171997,
					1
				],
				"metallicFactor":0,
				"roughnessFactor":0.5
			}
		},
		{
			"doubleSided":true,
			"name":"Material.012",
			"pbrMetallicRoughness":{
				"baseColorFactor":[
					0.03967975825071335,
					0.005992682185024023,
					0.00566356536000967,
					1
				],
				"metallicFactor":0,
				"roughnessFactor":0.5
			}
		}
	],
	"meshes":[
		{
			"name":"Cube.008",
			"primitives":[
				{
					"attributes":{
						"POSITION":0,
						"TEXCOORD_0":1,
						"NORMAL":2
					},
					"indices":3,
					"material":0
				},
				{
					"attributes":{
						"POSITION":4,
						"TEXCOORD_0":5,
						"NORMAL":6
					},
					"indices":7,
					"material":1
				},
				{
					"attributes":{
						"POSITION":8,
						"TEXCOORD_0":9,
						"NORMAL":10
					},
					"indices":11,
					"material":2
				},
				{
					"attributes":{
						"POSITION":12,
						"TEXCOORD_0":13,
						"NORMAL":14
					},
					"indices":15,
					"material":3
				},
				{
					"attributes":{
						"POSITION":16,
						"TEXCOORD_0":17,
						"NORMAL":18
					},
					"indices":19,
					"material":4
				},
				{
					"attributes":{
						"POSITION":20,
						"TEXCOORD_0":21,
						"NORMAL":22
					},
					"indices":23,
					"material":5
				},
				{
					"attributes":{
						"POSITION":24,
						"TEXCOORD_0":25,
						"NORMAL":26
					},
					"indices":27,
					"material":6
				},
				{
					"attributes":{
						"POSITION":28,
						"TEXCOORD_0":29,
						"NORMAL":30
					},
					"indices":3,
					"material":7
				},
				{
					"attributes":{
						"POSITION":31,
						"TEXCOORD_0":32,
						"NORMAL":33
					},
					"indices":3,
					"material":8
				},
				{
					"attributes":{
						"POSITION":34,
						"TEXCOORD_0":35,
						"NORMAL":36
					},
					"indices":3,
					"material":9
				},
				{
					"attributes":{
						"POSITION":37,
						"TEXCOORD_0":38,
						"NORMAL":39
					},
					"indices":23,
					"material":10
				}
			]
		}
	],
	"textures":[
		{
			"sampler":0,
			"source":0
		}
	],
	"images":[
		{
			"bufferView":8,
			"mimeType":"image/jpeg",
			"name":"houserocks"
		}
	],
	"accessors":[
		{
			"bufferView":0,
			"componentType":5126,
			"count":24,
			"max":[
				1,
				1,
				1
			],
			"min":[
				-1,
				-1,
				-1
			],
			"type":"VEC3"
		},
		{
			"bufferView":1,
			"componentType":5126,
			"count":24,
			"type":"VEC2"
		},
		{
			"bufferView":2,
			"componentType":5126,
			"count":24,
			"type":"VEC3"
		},
		{
			"bufferView":3,
			"componentType":5123,
			"count":36,
			"type":"SCALAR"
		},
		{
			"bufferView":4,
			"componentType":5126,
			"count":179,
			"max":[
				3.6869006156921387,
				52.070220947265625,
				3.2424235343933105
			],
			"min":[
				-3.6629750728607178,
				-1.3030662536621094,
				-0.6112595796585083
			],
			"type":"VEC3"
		},
		{
			"bufferView":5,
			"componentType":5126,
			"count":179,
			"type":"VEC2"
		},
		{
			"bufferView":6,
			"componentType":5126,
			"count":179,
			"type":"VEC3"
		},
		{
			"bufferView":7,
			"componentType":5123,
			"count":390,
			"type":"SCALAR"
		},
		{
			"bufferView":9,
			"componentType":5126,
			"count":96,
			"max":[
				3.8427820205688477,
				53.17298126220703,
				3.3088996410369873
			],
			"min":[
				-3.857430934906006,
				35.16709899902344,
				-0.38002634048461914
			],
			"type":"VEC3"
		},
		{
			"bufferView":10,
			"componentType":5126,
			"count":96,
			"type":"VEC2"
		},
		{
			"bufferView":11,
			"componentType":5126,
			"count":96,
			"type":"VEC3"
		},
		{
			"bufferView":12,
			"componentType":5123,
			"count":180,
			"type":"SCALAR"
		},
		{
			"bufferView":13,
			"componentType":5126,
			"count":82,
			"max":[
				-1.6423094272613525,
				60.73180389404297,
				1.0837209224700928
			],
			"min":[
				-2.470269203186035,
				41.93242645263672,
				0.3727948069572449
			],
			"type":"VEC3"
		},
		{
			"bufferView":14,
			"componentType":5126,
			"count":82,
			"type":"VEC2"
		},
		{
			"bufferView":15,
			"componentType":5126,
			"count":82,
			"type":"VEC3"
		},
		{
			"bufferView":16,
			"componentType":5123,
			"count":156,
			"type":"SCALAR"
		},
		{
			"bufferView":17,
			"componentType":5126,
			"count":54,
			"max":[
				0.8788160085678101,
				28.42449188232422,
				1.7138338088989258
			],
			"min":[
				-0.8695728778839111,
				2.194310188293457,
				-0.2631416320800781
			],
			"type":"VEC3"
		},
		{
			"bufferView":18,
			"componentType":5126,
			"count":54,
			"type":"VEC2"
		},
		{
			"bufferView":19,
			"componentType":5126,
			"count":54,
			"type":"VEC3"
		},
		{
			"bufferView":20,
			"componentType":5123,
			"count":108,
			"type":"SCALAR"
		},
		{
			"bufferView":21,
			"componentType":5126,
			"count":182,
			"max":[
				2.9441781044006348,
				26.66176986694336,
				1.4856430292129517
			],
			"min":[
				1.4082969427108765,
				11.822990417480469,
				-0.2510414123535156
			],
			"type":"VEC3"
		},
		{
			"bufferView":22,
			"componentType":5126,
			"count":182,
			"type":"VEC2"
		},
		{
			"bufferView":23,
			"componentType":5126,
			"count":182,
			"type":"VEC3"
		},
		{
			"bufferView":24,
			"componentType":5123,
			"count":444,
			"type":"SCALAR"
		},
		{
			"bufferView":25,
			"componentType":5126,
			"count":144,
			"max":[
				0.524195671081543,
				15.793283462524414,
				-0.07006168365478516
			],
			"min":[
				0.2916046679019928,
				13.496163368225098,
				-0.31459903717041016
			],
			"type":"VEC3"
		},
		{
			"bufferView":26,
			"componentType":5126,
			"count":144,
			"type":"VEC2"
		},
		{
			"bufferView":27,
			"componentType":5126,
			"count":144,
			"type":"VEC3"
		},
		{
			"bufferView":28,
			"componentType":5123,
			"count":228,
			"type":"SCALAR"
		},
		{
			"bufferView":29,
			"componentType":5126,
			"count":24,
			"max":[
				2.8911571502685547,
				25.981983184814453,
				1.001835584640503
			],
			"min":[
				1.4447059631347656,
				12.244365692138672,
				-0.1531968116760254
			],
			"type":"VEC3"
		},
		{
			"bufferView":30,
			"componentType":5126,
			"count":24,
			"type":"VEC2"
		},
		{
			"bufferView":31,
			"componentType":5126,
			"count":24,
			"type":"VEC3"
		},
		{
			"bufferView":32,
			"componentType":5126,
			"count":24,
			"max":[
				0.8124609589576721,
				27.604957580566406,
				1.8412518501281738
			],
			"min":[
				-0.8124609589576721,
				2.7056570053100586,
				-0.13572359085083008
			],
			"type":"VEC3"
		},
		{
			"bufferView":33,
			"componentType":5126,
			"count":24,
			"type":"VEC2"
		},
		{
			"bufferView":34,
			"componentType":5126,
			"count":24,
			"type":"VEC3"
		},
		{
			"bufferView":35,
			"componentType":5126,
			"count":24,
			"max":[
				-1.4233431816101074,
				25.981983184814453,
				1.001835584640503
			],
			"min":[
				-2.8697943687438965,
				12.244365692138672,
				-0.1531968116760254
			],
			"type":"VEC3"
		},
		{
			"bufferView":36,
			"componentType":5126,
			"count":24,
			"type":"VEC2"
		},
		{
			"bufferView":37,
			"componentType":5126,
			"count":24,
			"type":"VEC3"
		},
		{
			"bufferView":38,
			"componentType":5126,
			"count":182,
			"max":[
				-1.3997267484664917,
				26.66176986694336,
				1.4856430292129517
			],
			"min":[
				-2.93560791015625,
				11.822990417480469,
				-0.2510414123535156
			],
			"type":"VEC3"
		},
		{
			"bufferView":39,
			"componentType":5126,
			"count":182,
			"type":"VEC2"
		},
		{
			"bufferView":40,
			"componentType":5126,
			"count":182,
			"type":"VEC3"
		}
	],
	"bufferViews":[
		{
			"buffer":0,
			"byteLength":288,
			"byteOffset":0,
			"target":34962
		},
		{
			"buffer":0,
			"byteLength":192,
			"byteOffset":288,
			"target":34962
		},
		{
			"buffer":0,
			"byteLength":288,
			"byteOffset":480,
			"target":34962
		},
		{
			"buffer":0,
			"byteLength":72,
			"byteOffset":768,
			"target":34963
		},
		{
			"buffer":0,
			"byteLength":2148,
			"byteOffset":840,
			"target":34962
		},
		{
			"buffer":0,
			"byteLength":1432,
			"byteOffset":2988,
			"target":34962
		},
		{
			"buffer":0,
			"byteLength":2148,
			"byteOffset":4420,
			"target":34962
		},
		{
			"buffer":0,
			"byteLength":780,
			"byteOffset":6568,
			"target":34963
		},
		{
			"buffer":0,
			"byteLength":140794,
			"byteOffset":7348
		},
		{
			"buffer":0,
			"byteLength":1152,
			"byteOffset":148144,
			"target":34962
		},
		{
			"buffer":0,
			"byteLength":768,
			"byteOffset":149296,
			"target":34962
		},
		{
			"buffer":0,
			"byteLength":1152,
			"byteOffset":150064,
			"target":34962
		},
		{
			"buffer":0,
			"byteLength":360,
			"byteOffset":151216,
			"target":34963
		},
		{
			"buffer":0,
			"byteLength":984,
			"byteOffset":151576,
			"target":34962
		},
		{
			"buffer":0,
			"byteLength":656,
			"byteOffset":152560,
			"target":34962
		},
		{
			"buffer":0,
			"byteLength":984,
			"byteOffset":153216,
			"target":34962
		},
		{
			"buffer":0,
			"byteLength":312,
			"byteOffset":154200,
			"target":34963
		},
		{
			"buffer":0,
			"byteLength":648,
			"byteOffset":154512,
			"target":34962
		},
		{
			"buffer":0,
			"byteLength":432,
			"byteOffset":155160,
			"target":34962
		},
		{
			"buffer":0,
			"byteLength":648,
			"byteOffset":155592,
			"target":34962
		},
		{
			"buffer":0,
			"byteLength":216,
			"byteOffset":156240,
			"target":34963
		},
		{
			"buffer":0,
			"byteLength":2184,
			"byteOffset":156456,
			"target":34962
		},
		{
			"buffer":0,
			"byteLength":1456,
			"byteOffset":158640,
			"target":34962
		},
		{
			"buffer":0,
			"byteLength":2184,
			"byteOffset":160096,
			"target":34962
		},
		{
			"buffer":0,
			"byteLength":888,
			"byteOffset":162280,
			"target":34963
		},
		{
			"buffer":0,
			"byteLength":1728,
			"byteOffset":163168,
			"target":34962
		},
		{
			"buffer":0,
			"byteLength":1152,
			"byteOffset":164896,
			"target":34962
		},
		{
			"buffer":0,
			"byteLength":1728,
			"byteOffset":166048,
			"target":34962
		},
		{
			"buffer":0,
			"byteLength":456,
			"byteOffset":167776,
			"target":34963
		},
		{
			"buffer":0,
			"byteLength":288,
			"byteOffset":168232,
			"target":34962
		},
		{
			"buffer":0,
			"byteLength":192,
			"byteOffset":168520,
			"target":34962
		},
		{
			"buffer":0,
			"byteLength":288,
			"byteOffset":168712,
			"target":34962
		},
		{
			"buffer":0,
			"byteLength":288,
			"byteOffset":169000,
			"target":34962
		},
		{
			"buffer":0,
			"byteLength":192,
			"byteOffset":169288,
			"target":34962
		},
		{
			"buffer":0,
			"byteLength":288,
			"byteOffset":169480,
			"target":34962
		},
		{
			"buffer":0,
			"byteLength":288,
			"byteOffset":169768,
			"target":34962
		},
		{
			"buffer":0,
			"byteLength":192,
			"byteOffset":170056,
			"target":34962
		},
		{
			"buffer":0,
			"byteLength":288,
			"byteOffset":170248,
			"target":34962
		},
		{
			"buffer":0,
			"byteLength":2184,
			"byteOffset":170536,
			"target":34962
		},
		{
			"buffer":0,
			"byteLength":1456,
			"byteOffset":172720,
			"target":34962
		},
		{
			"buffer":0,
			"byteLength":2184,
			"byteOffset":174176,
			"target":34962
		}
	],
	"samplers":[
		{
			"magFilter":9729,
			"minFilter":9987
		}
	],
	"buffers":[
		{
			"byteLength":176360,
			"uri":"data:application/octet-stream;base64,"
		}
	]
}
